<?xml version="1.0" encoding="UTF-8" standalone="no"?>
<svg
   width="250"
   height="30"
   viewBox="0 0 1000 120"
   version="1.1"
   id="svg6"
   sodipodi:docname="background.svg"
   inkscape:version="1.3 (0e150ed6c4, 2023-07-21)"
   xmlns:inkscape="http://www.inkscape.org/namespaces/inkscape"
   xmlns:sodipodi="http://sodipodi.sourceforge.net/DTD/sodipodi-0.dtd"
   xmlns="http://www.w3.org/2000/svg"
   xmlns:svg="http://www.w3.org/2000/svg">
  <defs
     id="defs6">
    <filter
       style="color-interpolation-filters:sRGB;"
       inkscape:label="Blur"
       id="filter13"
       x="-0.0025642964"
       y="-0.048333334"
       width="1.0051286"
       height="1.0966667">
      <feGaussianBlur
         stdDeviation="1.5 1.5"
         result="blur"
         id="feGaussianBlur13" />
    </filter>
    <filter
       style="color-interpolation-filters:sRGB;"
       inkscape:label="Blur"
       id="filter14"
       x="-0.0036"
       y="-0.03"
       width="1.0072"
       height="1.06">
      <feGaussianBlur
         stdDeviation="1.5 1.5"
         result="blur"
         id="feGaussianBlur14" />
    </filter>
  </defs>
  <sodipodi:namedview
     id="namedview6"
     pagecolor="#ffffff"
     bordercolor="#111111"
     borderopacity="1"
     inkscape:showpageshadow="0"
     inkscape:pageopacity="0"
     inkscape:pagecheckerboard="1"
     inkscape:deskcolor="#d1d1d1"
     inkscape:zoom="5.352"
     inkscape:cx="125.93423"
     inkscape:cy="14.947683"
     inkscape:window-width="1920"
     inkscape:window-height="1138"
     inkscape:window-x="-8"
     inkscape:window-y="-8"
     inkscape:window-maximized="1"
     inkscape:current-layer="svg6" />
  <rect
     fill="#1A002B"
     width="1000"
     height="120"
     id="rect1"
     style="filter:url(#filter14)" />
  <g
     fill="none"
     stroke="#260040"
     stroke-width="13.1"
     stroke-opacity="0.68"
     id="g6"
     style="filter:url(#filter13)">
    <path
       d="M-500 75c0 0 125-30 250-30S0 75 0 75s125 30 250 30s250-30 250-30s125-30 250-30s250 30 250 30s125 30 250 30s250-30 250-30"
       id="path1" />
    <path
       d="M-500 45c0 0 125-30 250-30S0 45 0 45s125 30 250 30s250-30 250-30s125-30 250-30s250 30 250 30s125 30 250 30s250-30 250-30"
       id="path2" />
    <path
       d="M-500 105c0 0 125-30 250-30S0 105 0 105s125 30 250 30s250-30 250-30s125-30 250-30s250 30 250 30s125 30 250 30s250-30 250-30"
       id="path3" />
    <path
       d="M-500 15c0 0 125-30 250-30S0 15 0 15s125 30 250 30s250-30 250-30s125-30 250-30s250 30 250 30s125 30 250 30s250-30 250-30"
       id="path4" />
    <path
       d="M-500-15c0 0 125-30 250-30S0-15 0-15s125 30 250 30s250-30 250-30s125-30 250-30s250 30 250 30s125 30 250 30s250-30 250-30"
       id="path5" />
    <path
       d="M-500 135c0 0 125-30 250-30S0 135 0 135s125 30 250 30s250-30 250-30s125-30 250-30s250 30 250 30s125 30 250 30s250-30 250-30"
       id="path6" />
  </g>
</svg>
